<?xml version="1.0" encoding="UTF-8"?>
<svg id="Layer_1" data-name="Layer 1" xmlns="http://www.w3.org/2000/svg" viewBox="0 0 1414.22 530.56">
  <defs>
    <style>
      .cls-1 {
        font-family: GillSansNova-Medium, 'Gill Sans Nova';
        font-size: 100.33px;
        font-weight: 500;
      }

      .cls-1, .cls-2 {
        fill: #fff;
      }

      .cls-3 {
        letter-spacing: 0em;
      }

      .cls-4 {
        letter-spacing: 0em;
      }
    </style>
  </defs>
  <path class="cls-2" d="M442.71,244.72l51.68-.54,47.76-203.51c8.58-2.26,34.07-10.81,33.37,5.88-.71,17.01-27.56,107.52-23.79,111.98,21.4-3.86,47.93-40.8,66.67-9,14.82,25.15-7.85,68.02-9.8,95.19l42.43-.23,25.97-107.27,31.13,4.13-19,103.4,37.95.03c-20.06-54.7,63.57-148.43,95.13-95.24,23.37,39.39-39.36,58.54-59.95,66.29-.45,48.16,48.41,22.93,75.64,29.27l31.37-107.03,27.87,3.91,2.87,22.31c21.66-29.04,50.11-42.76,66.34,0,71.45-73.83,75.42,12.18,49.79,80.41l61.65,2.98c-.49,37.24-78.48,31.19-92.7,14.55-18.43-21.56,17.63-69.52,5.01-97.89-10.54,8.75-23.86,18.34-30.19,32.35-16.74,37.04.33,90.02-52.79,76.79-6.06-7.46,15.67-75.74,16.9-91.75.69-8.92,3.56-10.21-5.03-17.31-37.48,25.43-34.75,63.33-49.57,106.42l-194.03,3.21c-6.1,50.1-21.59,108.11-71.52,100.01,25.87-23.86,30.21-64.8,37.87-100.54-97.05,10.71-66.98-25.92-56.9-109.21-53.47,18.1-42.79,62.89-64.58,108.38l-310.08-1.95-8.47-3.82c-3.87-42.82,13.82-83.26,18.73-125.03l37.44-.53-18.94,103.36,20.79.38c11.58-18.86,16.17-104.44,34.22-108.25l25.54,4.53-18.93,103.34,37.92.06c-8.22-70.53,30.27-124.05,89.98-97.69,2.02-20.54,15.82-98.74,28.38-106.41,7.11-4.34,21.52-5.71,26.52,2.64,10.54,17.6-42.97,167.9-40.67,201.4ZM802.86,152.84c-10.72-12.99-37.6,22.92-33.12,40.16,14.22,5.42,43.84-27.17,33.12-40.16ZM419.05,170.1c-41.16-22.34-64.9,74.88-14.45,68.68l14.45-68.68Z"/>
  <path class="cls-2" d="M101.53,129.74c-3.55-17.91,12.51-9.47,22.54-15.63,24.09-14.8,33.55-80.96-10.7-76.54C49.21,43.98,3.31,235.93,86.2,249.36c11.79,1.91,30.71-3.64,40.53-11.38,14.88-11.73,13.91-100.64,55.32-102.38,3.71,33.54-8.71,63-13.62,95.47-5.97,39.46,1.22,62.37-20.32,101.77-29.31,53.6-106.14,66.66-131.9,3.89,48.14,26.96,89.54,3.72,104.23-57.49C-40.18,337.13-29.17,61.82,88.77,8.12c111.66-50.84,121.11,155.02,12.76,121.62Z"/>
  <path class="cls-2" d="M1343.13,244.74h71.09c-2.87,9.79-6.19,28.73-16.59,28.73h-116.11c-2.54-37.68,34.37-23.5,40.59-34.08,6.87-11.71.36-43.75-2.72-57.83-9.6-8.25-29.13,37.59-35.43,46.01-6.48,8.66-32.73,42.48-38.94,44.72-12.52,4.51-84.52,4.31-91.89-6.88-12.86-19.53,16.16-99.66,22.78-124.29l34.55.23-23.71,103.33c23.39.86,41.99,3.22,61.79-14.09,5.77-5.05,36.45-49.28,38.92-56.27,8.75-24.69-11.23-89.33,36.65-82.14,18.74,11.57,3.77,36,5.56,45.78,1.14,6.21,14.89,12.58,20.41,20.79,19.77,29.38,12.8,60.28-6.94,85.98Z"/>
  <path class="cls-2" d="M721.1,45.01c21.21,22.75-13.2,65.2-30.76,43.17-20.98-26.33,13.17-62.04,30.76-43.17Z"/>
  <path class="cls-2" d="M1192.17,44.49c21.12-16.05,53.66,21.49,24.71,44.59-28.76,22.95-38.16-34.37-24.71-44.59Z"/>
  <text class="cls-1" transform="translate(157.25 488.8) scale(1.11 1)"><tspan class="cls-4" x="0" y="0">ishuset på Gudhjem h</tspan><tspan class="cls-3" x="904.56" y="0">a</tspan><tspan class="cls-4" x="946.2" y="0">vn</tspan></text>
</svg>